<svg width="49" height="34" viewBox="0 0 49 34" fill="none" xmlns="http://www.w3.org/2000/svg">
<path d="M6.224 25.608V19.824C6.224 19.536 6.32 19.296 6.512 19.104C6.72 18.896 6.968 18.792 7.256 18.792H21.488C21.76 18.792 21.992 18.896 22.184 19.104C22.392 19.296 22.496 19.536 22.496 19.824V25.608C22.496 25.896 22.392 26.136 22.184 26.328C21.992 26.536 21.76 26.64 21.488 26.64H7.256C6.968 26.64 6.72 26.536 6.512 26.328C6.32 26.136 6.224 25.896 6.224 25.608ZM10.928 16.224C10.64 16.224 10.392 16.128 10.184 15.936C9.992 15.744 9.896 15.504 9.896 15.216C9.816 13.904 9.264 12.952 8.24 12.36C7.488 14.024 6.52 15.248 5.336 16.032C5.16 16.16 4.968 16.224 4.76 16.224C4.392 16.224 4.128 16.104 3.968 15.864C3.824 15.624 3.752 15.4 3.752 15.192C3.752 14.84 3.888 14.56 4.16 14.352C4.96 13.808 5.624 13 6.152 11.928C6.696 10.856 7.072 9.712 7.28 8.496H5.768C5.528 8.496 5.32 8.416 5.144 8.256C4.984 8.08 4.904 7.88 4.904 7.656C4.904 7.416 4.984 7.216 5.144 7.056C5.32 6.896 5.528 6.816 5.768 6.816H17.648C18.16 6.88 18.44 7.168 18.488 7.68C18.488 7.904 18.416 8.096 18.272 8.256C18.128 8.416 17.928 8.496 17.672 8.496H15.536C15.456 8.976 15.32 9.592 15.128 10.344C15.976 10.776 16.672 11.44 17.216 12.336C17.776 13.216 18.072 14.144 18.104 15.12V15.192C18.104 15.496 18.008 15.744 17.816 15.936C17.624 16.128 17.384 16.224 17.096 16.224C16.808 16.224 16.56 16.128 16.352 15.936C16.16 15.728 16.064 15.48 16.064 15.192V15.168C16.032 14.608 15.872 14.072 15.584 13.56C15.296 13.048 14.912 12.632 14.432 12.312C13.648 14.024 12.672 15.264 11.504 16.032C11.328 16.16 11.136 16.224 10.928 16.224ZM21.488 6.504C21.76 6.504 21.992 6.608 22.184 6.816C22.392 7.008 22.496 7.248 22.496 7.536V16.08C22.496 16.368 22.392 16.616 22.184 16.824C21.992 17.016 21.76 17.112 21.488 17.112C21.2 17.112 20.952 17.016 20.744 16.824C20.552 16.616 20.456 16.368 20.456 16.08V7.536C20.456 7.248 20.552 7.008 20.744 6.816C20.952 6.608 21.2 6.504 21.488 6.504ZM8.264 24.936H20.456V20.496H8.264V24.936ZM8.96 10.392C10.144 11 10.992 11.944 11.504 13.224C12.464 12.056 13.112 10.48 13.448 8.496H9.368C9.288 8.992 9.152 9.624 8.96 10.392ZM41.5942 22.848C41.5942 22.064 41.3622 21.52 40.8982 21.216C40.4502 20.912 39.8102 20.76 38.9782 20.76H31.4902C29.7462 20.76 28.8742 21.456 28.8742 22.848C28.8742 24.24 29.7462 24.936 31.4902 24.936H38.9782C40.7222 24.936 41.5942 24.24 41.5942 22.848ZM43.6582 22.848C43.6582 24.112 43.2502 25.056 42.4342 25.68C41.6342 26.304 40.5622 26.616 39.2182 26.616H31.2502C29.9222 26.616 28.8502 26.312 28.0342 25.704C27.2182 25.096 26.8102 24.144 26.8102 22.848C26.8102 21.584 27.2102 20.64 28.0102 20.016C28.8262 19.376 29.9062 19.056 31.2502 19.056H39.2182C40.5462 19.056 41.6182 19.368 42.4342 19.992C43.2502 20.6 43.6582 21.552 43.6582 22.848ZM34.4662 13.416C34.7382 13.416 34.9702 13.52 35.1622 13.728C35.3702 13.92 35.4742 14.152 35.4742 14.424V15.888H44.4022C44.6262 15.888 44.8182 15.976 44.9782 16.152C45.1542 16.312 45.2422 16.504 45.2422 16.728C45.2422 16.968 45.1542 17.176 44.9782 17.352C44.8182 17.512 44.6262 17.592 44.4022 17.592H26.0662C25.8422 17.592 25.6422 17.512 25.4662 17.352C25.3062 17.176 25.2262 16.968 25.2262 16.728C25.2262 16.504 25.3062 16.312 25.4662 16.152C25.6422 15.976 25.8422 15.888 26.0662 15.888H33.4342V14.424C33.4342 14.152 33.5302 13.92 33.7222 13.728C33.9302 13.52 34.1782 13.416 34.4662 13.416ZM38.5462 8.448H28.0102C27.5142 8.384 27.2342 8.096 27.1702 7.584C27.1702 7.36 27.2422 7.168 27.3862 7.008C27.5302 6.848 27.7382 6.768 28.0102 6.768H38.7862C40.0022 6.768 41.0342 7.192 41.8822 8.04C42.7302 8.888 43.1542 9.92 43.1542 11.136V12.84C43.1542 13.16 43.0502 13.416 42.8422 13.608C42.6502 13.784 42.4102 13.872 42.1222 13.872C41.8342 13.872 41.5942 13.768 41.4022 13.56C41.2102 13.352 41.1142 13.104 41.1142 12.816V11.808H28.1542C27.9302 11.808 27.7302 11.728 27.5542 11.568C27.3942 11.392 27.3142 11.184 27.3142 10.944C27.3142 10.72 27.3942 10.528 27.5542 10.368C27.7302 10.192 27.9302 10.104 28.1542 10.104H40.9462C40.7542 9.624 40.4422 9.232 40.0102 8.928C39.5942 8.608 39.1062 8.448 38.5462 8.448Z" fill="#FF3939"/>
<path d="M4 3H41C44.866 3 48 6.13401 48 10V27C48 28.6569 46.6569 30 45 30H4C2.34315 30 1 28.6569 1 27V6C1 4.34315 2.34315 3 4 3Z" stroke="#FF3939" stroke-width="2"/>
</svg>
